PathFileType	4	(X/Y/Z)	Patient4_TMGait_0pt2_02_right_04.trc.trc
DataRate	CameraRate	NumFrames	NumMarkers	Units	OrigDataRate	OrigDataStartFrame	OrigNumFrames
43.209876543210	43.209876543210	4	33	mm	43.209876543210	89	       141
Frame#	Time	R.Midfoot.Superior			Sacral			L.Shoulder			Chest			R.Shoulder			Neck			R.ASIS			L.ASIS			R.Thigh.Superior			R.Thigh.Lateral			R.Thigh.Inferior			R.Patella			L.Thigh.Superior			L.Thigh.Lateral			L.Thigh.Inferior			L.Patella			L.Shank.Superior			L.Shank.Lateral			L.Shank.Inferior			R.Shank.Superior			R.Shank.Lateral			R.Shank.Inferior			R.Heel			R.Midfoot.Lateral			R.Toe			L.Heel			L.Midfoot.Lateral			L.Midfoot.Superior			L.Toe			L.Elbow			L.Wrist			R.Elbow			R.Wrist			
		X1	Y1	Z1	X2	Y2	Z2	X3	Y3	Z3	X4	Y4	Z4	X5	Y5	Z5	X6	Y6	Z6	X7	Y7	Z7	X8	Y8	Z8	X9	Y9	Z9	X10	Y10	Z10	X11	Y11	Z11	X12	Y12	Z12	X13	Y13	Z13	X14	Y14	Z14	X15	Y15	Z15	X16	Y16	Z16	X17	Y17	Z17	X18	Y18	Z18	X19	Y19	Z19	X20	Y20	Z20	X21	Y21	Z21	X22	Y22	Z22	X23	Y23	Z23	X24	Y24	Z24	X25	Y25	Z25	X26	Y26	Z26	X27	Y27	Z27	X28	Y28	Z28	X29	Y29	Z29	X30	Y30	Z30	X31	Y31	Z31	X32	Y32	Z32	X33	Y33	Z33	

89	9.686571428571	765.691882847361	104.612996932912	582.594358287004	765.399872858931	1013.935851984830	470.745163619634	911.235748899361	1430.404023684939	254.984324228183	1042.508797474877	1363.472763137031	395.224056843246	994.737401546545	1445.039225547300	577.244834408614	920.775177736933	1496.257170463951	409.727125349523	1002.909425604503	936.831342460396	559.892429000054	958.899707126192	962.755400185720	289.887192816441	988.352132428454	722.536099629809	539.467382130470	884.870026425856	633.493871443943	610.326075085179	939.762139246728	562.232442046849	531.004135994489	914.473232382502	472.347429141783	543.110726968365	1024.046997413986	762.903604188645	325.108968201362	950.739086865208	634.942598569775	263.116582118801	1043.903694530694	568.183529040529	326.811076781511	1051.463931000299	497.693654107729	334.074343710360	1027.700199187258	424.480747181770	324.790163575314	945.018341157694	307.647724469037	268.651377448543	998.400110643265	196.368998694789	337.923761578488	856.535805689272	398.232780674591	556.079074823722	755.858157715648	326.222445807317	623.025685404984	766.364995746540	218.766087611023	567.251809225442	587.523615670791	90.653322188735	544.740833459771	666.789687689812	63.528219113925	618.629581356520	868.948180060977	36.312941980568	610.353477689934	871.832107137946	39.070505720183	367.951874020408	951.903844328520	36.149031684117	293.626858079533	1033.281032810671	97.212936031951	326.641404777175	1162.986170209934	44.841522518444	308.151645155173	799.964875636202	1098.992145105108	146.657236715250	806.417795911032	837.079112839371	154.668026642083	1194.198806089850	1176.022723338325	686.975147401735	1434.427066665190	1224.566623836192	607.446471289452	
90	9.709714285714	762.382285541762	104.796897501596	582.963433322087	766.116570219528	1014.285424132787	463.719068215596	914.596994984100	1431.299594118310	250.681458574820	1043.994463091771	1363.972654812437	392.452194252293	993.968637009607	1445.044487496689	574.112576535617	922.134714916545	1496.772983319778	405.845863372966	1002.650232975405	937.331570613359	555.500848066245	961.485871625950	963.025069498136	285.043867737389	987.595544210181	723.049357001273	536.460597133765	883.108371571919	635.000949531812	607.214699667838	938.604045015661	562.779429005773	529.108750520603	912.997878651602	472.903974983968	541.839007679750	1025.752981859719	762.642668047636	321.712571433204	952.429261996293	634.355594260612	260.062486150815	1044.851501068922	567.558494720272	324.783344694996	1052.209778717230	496.796832850740	332.463881223623	1027.547995796553	423.588872889461	323.582514399796	944.059013665880	307.318523355510	267.754638308055	995.573854729123	195.964167887599	337.868288493312	854.472650273506	399.248346813656	555.059914844383	752.979190115549	328.278791087791	621.982623207836	763.554845838371	220.141651488369	567.259990928973	583.948944378642	93.105989142479	545.056375962758	662.895737294497	64.703107561768	618.853338235964	864.550946899414	36.303941072896	610.326218122370	867.313888225941	39.348033232507	368.097205612665	947.369505358649	36.372590052865	293.866022341460	1029.004425921424	97.108701138865	326.890186290264	1158.580881945842	43.957214776117	308.221198417486	811.842009297133	1097.611575940950	138.446774877603	825.771690245097	835.979604797458	143.038530683418	1186.247583274333	1169.232595869569	685.781158986753	1431.397863455462	1201.041618223561	613.614253498999	
91	9.732857142857	758.996365380419	104.826759022698	583.329585348451	766.636970502527	1014.301367449458	456.711643367765	917.895001351599	1432.027013766957	246.561072222336	1045.328918796199	1364.131215592092	389.816446423957	993.044369416088	1444.537661120205	571.149100397229	923.406818854092	1496.979465331832	402.220223442037	1002.149743640948	937.603928217977	551.098753061161	963.861741940498	962.933153010833	280.232998051180	986.903263469488	723.313670755274	533.485052325748	881.530555450857	636.120728313605	604.110370410085	937.757779409591	563.010538732358	527.238025587605	911.952092784482	472.993211606088	540.678672418975	1027.534172123695	762.307336353211	318.446177905011	954.487178031972	633.575346108004	257.112065633180	1046.306222177277	566.889156783830	322.816051798257	1053.546361303061	495.762469894272	330.862171491247	1027.850794411370	422.497625589194	322.411935198529	943.365405320337	306.926666171762	266.852613354177	992.841186363513	195.453836162479	337.805429417405	852.729407659860	399.860547560788	554.083806811909	750.335324761454	330.063987925314	620.978028865389	760.827235146767	221.246735371314	567.312269693714	580.346901625879	95.330470528138	545.435613093737	658.970619272803	65.702385514079	619.130876640349	860.158440025016	36.296848496976	610.336678183237	862.754212083605	39.603026994504	368.216318005348	942.799125269515	36.565705889730	294.072683595096	1024.669611795431	97.011854207329	327.106098391497	1154.125536208493	43.152903139119	308.282071387237	824.733189576843	1096.021647263076	130.528928003141	846.598715485331	834.943185655153	132.123045030982	1177.032540926363	1161.216797568553	684.439637181687	1425.835404670647	1173.942020481646	620.395251400445	
92	9.756000000000	755.552764968588	104.753183616074	583.674795177087	766.940181919868	1013.914441468128	449.722739102060	921.141069352110	1432.487168483563	242.591262930895	1046.504808671971	1363.876572048219	387.309570940246	991.930106403072	1443.469524850835	568.327757275748	924.579978245728	1496.808427277662	398.804769951887	1001.383601556674	937.583018336900	546.716863258719	966.037646613000	962.433552178678	275.483892403672	986.397556718012	723.270170944292	530.535427419322	880.339347810124	636.716791460806	601.013559600688	937.479549686731	562.830595373441	525.378671476991	911.619776980804	472.473891827266	539.635277910222	1029.389554781941	761.835786033949	315.288810748150	956.912233220256	632.561151115329	254.246265817115	1048.267362971673	566.132635514181	320.902233897217	1055.468025956333	494.558123303891	329.271194333965	1028.607852673576	421.168683456446	321.275272777327	942.940412062628	306.440899830501	265.918857617412	990.188297987291	194.807530636576	337.718274842044	851.538689093696	399.952283881325	553.128914942165	748.116937511706	331.555292398603	619.977740495364	758.281644638237	222.065995368593	567.369968030165	576.748756445174	97.453478732426	545.825504969950	655.016621982881	66.636167977886	619.427991201206	855.740355603745	36.275293469593	610.396265039141	858.159878902095	39.809200084911	368.298995229732	938.199876257250	36.711063990806	294.229404343425	1020.267475688493	96.919549639254	327.279998174300	1149.624446191580	42.466209527612	308.332020870595	838.659301868076	1094.223032397585	122.922528541587	868.848331632994	833.993617863038	122.080331510678	1166.456100478511	1152.072669369142	682.861375108178	1417.134790192192	1143.521659044437	627.600900751842	
